HIERARCHY
ROOT hip
{
  OFFSET 0 0 0
  CHANNELS 6 Xposition Yposition Zposition Zrotation Yrotation Xrotation
  JOINT abdomen
  {
    OFFSET 0 20.6881 -0.73152
    CHANNELS 3 Zrotation Xrotation Yrotation
    JOINT chest
    {
      OFFSET 0 11.7043 -0.48768
      CHANNELS 3 Zrotation Xrotation Yrotation
      JOINT neck
      {
        OFFSET 0 22.1894 -2.19456
        CHANNELS 3 Zrotation Xrotation Yrotation
        JOINT head
        {
          OFFSET -0.24384 7.07133 1.2192
          CHANNELS 3 Zrotation Xrotation Yrotation
          JOINT leftEye
          {
            OFFSET 4.14528 8.04674 8.04672
            CHANNELS 3 Zrotation Xrotation Yrotation
            End Site
            {
              OFFSET 1 0 0
            }
          }
          JOINT rightEye
          {
            OFFSET -3.6576 8.04674 8.04672
            CHANNELS 3 Zrotation Xrotation Yrotation
            End Site
            {
              OFFSET 1 0 0
            }
          }
        }
      }
      JOINT rCollar
      {
        OFFSET -2.68224 19.2634 -4.8768
        CHANNELS 3 Zrotation Xrotation Yrotation
        JOINT rShldr
        {
          OFFSET -8.77824 -1.95073 1.46304
          CHANNELS 3 Zrotation Xrotation Yrotation
          JOINT rForeArm
          {
            OFFSET -28.1742 -1.7115 0.48768
            CHANNELS 3 Zrotation Xrotation Yrotation
            JOINT rHand
            {
              OFFSET -22.5879 0.773209 7.07136
              CHANNELS 3 Zrotation Xrotation Yrotation
              JOINT rThumb1
              {
                OFFSET -1.2192 -0.487915 3.41376
                CHANNELS 3 Zrotation Xrotation Yrotation
                JOINT rThumb2
                {
                  OFFSET -3.37035 -0.52449 3.41376
                  CHANNELS 3 Zrotation Xrotation Yrotation
                  End Site
                  {
                    OFFSET -1.78271 -1.18214 1.43049
                  }
                }
              }
              JOINT rIndex1
              {
                OFFSET -7.75947 0.938293 5.60832
                CHANNELS 3 Zrotation Xrotation Yrotation
                JOINT rIndex2
                {
                  OFFSET -2.54057 -0.884171 1.56538
                  CHANNELS 3 Zrotation Xrotation Yrotation
                  End Site
                  {
                    OFFSET -1.62519 -0.234802 1.16502
                  }
                }
              }
              JOINT rMid1
              {
                OFFSET -8.24714 1.18213 3.41376
                CHANNELS 3 Zrotation Xrotation Yrotation
                JOINT rMid2
                {
                  OFFSET -3.10165 -0.590103 1.0647
                  CHANNELS 3 Zrotation Xrotation Yrotation
                  End Site
                  {
                    OFFSET -2.48547 -0.328903 0.83742
                  }
                }
              }
              JOINT rRing1
              {
                OFFSET -8.82822 0.546677 1.51678
                CHANNELS 3 Zrotation Xrotation Yrotation
                JOINT rRing2
                {
                  OFFSET -2.60934 -0.819778 -0.0198488
                  CHANNELS 3 Zrotation Xrotation Yrotation
                  End Site
                  {
                    OFFSET -2.33842 -0.294052 0.168128
                  }
                }
              }
              JOINT rPinky1
              {
                OFFSET -8.27202 -0.0477905 -0.4584
                CHANNELS 3 Zrotation Xrotation Yrotation
                JOINT rPinky2
                {
                  OFFSET -1.82734 -0.647385 -0.700984
                  CHANNELS 3 Zrotation Xrotation Yrotation
                  End Site
                  {
                    OFFSET -1.69225 -0.51767 -0.607171
                  }
                }
              }
            }
          }
        }
      }
      JOINT lCollar
      {
        OFFSET 2.68224 19.2634 -4.8768
        CHANNELS 3 Zrotation Xrotation Yrotation
        JOINT lShldr
        {
          OFFSET 8.77824 -1.95073 1.46304
          CHANNELS 3 Zrotation Xrotation Yrotation
          JOINT lForeArm
          {
            OFFSET 28.1742 -1.7115 0.48768
            CHANNELS 3 Zrotation Xrotation Yrotation
            JOINT lHand
            {
              OFFSET 22.5879 0.773209 7.07136
              CHANNELS 3 Zrotation Xrotation Yrotation
              JOINT lThumb1
              {
                OFFSET 1.2192 -0.487915 3.41376
                CHANNELS 3 Zrotation Xrotation Yrotation
                JOINT lThumb2
                {
                  OFFSET 3.37035 -0.52449 3.41376
                  CHANNELS 3 Zrotation Xrotation Yrotation
                  End Site
                  {
                    OFFSET 1.78271 -1.18214 1.43049
                  }
                }
              }
              JOINT lIndex1
              {
                OFFSET 7.75947 0.938293 5.60832
                CHANNELS 3 Zrotation Xrotation Yrotation
                JOINT lIndex2
                {
                  OFFSET 2.54057 -0.884171 1.56538
                  CHANNELS 3 Zrotation Xrotation Yrotation
                  End Site
                  {
                    OFFSET 1.62519 -0.234802 1.16502
                  }
                }
              }
              JOINT lMid1
              {
                OFFSET 8.24714 1.18213 3.41376
                CHANNELS 3 Zrotation Xrotation Yrotation
                JOINT lMid2
                {
                  OFFSET 3.10165 -0.590103 1.0647
                  CHANNELS 3 Zrotation Xrotation Yrotation
                  End Site
                  {
                    OFFSET 2.48547 -0.328903 0.83742
                  }
                }
              }
              JOINT lRing1
              {
                OFFSET 8.82822 0.546677 1.51678
                CHANNELS 3 Zrotation Xrotation Yrotation
                JOINT lRing2
                {
                  OFFSET 2.60934 -0.819778 -0.0198488
                  CHANNELS 3 Zrotation Xrotation Yrotation
                  End Site
                  {
                    OFFSET 2.33842 -0.294052 0.168128
                  }
                }
              }
              JOINT lPinky1
              {
                OFFSET 8.27202 -0.0477905 -0.4584
                CHANNELS 3 Zrotation Xrotation Yrotation
                JOINT lPinky2
                {
                  OFFSET 1.82734 -0.647385 -0.700984
                  CHANNELS 3 Zrotation Xrotation Yrotation
                  End Site
                  {
                    OFFSET 1.69225 -0.51767 -0.607171
                  }
                }
              }
            }
          }
        }
      }
    }
  }
  JOINT rButtock
  {
    OFFSET -8.77824 4.35084 1.2192
    CHANNELS 3 Zrotation Xrotation Yrotation
    JOINT rThigh
    {
      OFFSET 0 -1.70687 -2.19456
      CHANNELS 3 Zrotation Xrotation Yrotation
      JOINT rShin
      {
        OFFSET 0 -36.8199 0.73152
        CHANNELS 3 Zrotation Xrotation Yrotation
        JOINT rFoot
        {
          OFFSET 0.73152 -45.1104 -5.12064
          CHANNELS 3 Zrotation Xrotation Yrotation
          End Site
          {
            OFFSET -1.1221 -3.69964 12.103
          }
        }
      }
    }
  }
  JOINT lButtock
  {
    OFFSET 8.77824 4.35084 1.2192
    CHANNELS 3 Zrotation Xrotation Yrotation
    JOINT lThigh
    {
      OFFSET 0 -1.70687 -2.19456
      CHANNELS 3 Zrotation Xrotation Yrotation
      JOINT lShin
      {
        OFFSET 0 -36.8199 0.73152
        CHANNELS 3 Zrotation Xrotation Yrotation
        JOINT lFoot
        {
          OFFSET -0.73152 -45.1104 -5.12064
          CHANNELS 3 Zrotation Xrotation Yrotation
          End Site
          {
            OFFSET 1.1221 -3.69964 12.103
          }
        }
      }
    }
  }
}
MOTION
Frames:	5
Frame Time:	0.00833333
52.7866 84.9514 -175.296 0.0 0.0 0.0 -0.0821273 -0.000598416 -0.00235242 -0.0226701 -0.000955182 -0.00392728 8.29908e-16 -1.59028e-15 -2.17421e-17 2.51276e-15 3.18055e-15 -6.52262e-17 -0.0 0.0 0.0 -0.0 0.0 0.0 3.96243e-16 -2.32951e-18 1.49089e-16 1.1506e-14 -1.11816e-16 5.96354e-16 1.54158e-13 -4.37326e-14 -1.90833e-14 1.72603e-12 4.75592e-14 -4.13472e-14 4.07805e-12 7.34304e-15 -9.54166e-14 7.03658e-12 1.27222e-14 -1.82882e-13 4.08145e-12 9.93923e-15 -1.08139e-13 7.73091 5.47488 0.417314 4.07921e-12 7.85199e-15 -1.01778e-13 2.90554 0.965183 0.102902 4.0844e-12 7.85199e-15 -1.04163e-13 10.2786 0.731801 0.0259123 4.07369e-12 1.07344e-14 -1.04958e-13 2.22167 -0.733487 -0.20892 3.98922e-16 -2.32951e-18 -1.49089e-16 5.99023e-15 -2.23633e-16 -9.93923e-16 1.47598e-13 4.57205e-14 0.0 1.73143e-12 -4.64411e-14 -4.13472e-14 4.07797e-12 3.51415e-16 -1.11319e-13 7.04811e-12 -3.18055e-15 -1.81292e-13 4.07111e-12 1.59028e-15 -1.08139e-13 -7.73091 5.47488 -0.417314 4.07712e-12 6.95746e-16 -1.11319e-13 -2.90554 0.965183 -0.102902 4.06387e-12 8.94531e-16 -1.06549e-13 -10.2786 0.731801 -0.0259123 4.07588e-12 -7.95139e-16 -1.145e-13 -2.22167 -0.733487 0.20892 -2.03217e-16 0.0 -3.88251e-19 0.419507 -2.96758 -0.0374305 -0.00606584 -0.177341 -0.0534197 -0.481456 3.14428 0.118506 2.03217e-16 0.0 3.88251e-19 -0.54478 -3.29623 0.0452328 0.00510404 0.417971 0.0447112 0.482725 2.87763 -0.11328
52.6749 83.5347 -175.578 -0.284 -0.5728 1.5702 -0.11058 -0.282928 -1.35503 0.225515 -0.266235 -0.389245 3.39233 3.65019 0.3085 -6.71638 -5.34341 -0.701901 -0.0 0.0 0.0 -0.0 0.0 0.0 5.69762e-15 2.47104e-14 -1.67336e-15 22.2953 9.67257 0.492746 -3.00295 -1.18812 4.86447 0.0368793 4.26223 0.593046 1.56179e-10 -1.08516e-11 -1.45835e-10 2.67932e-10 -1.63403e-11 -2.54117e-10 1.56183e-10 -1.08495e-11 -1.45844e-10 7.73091 5.47488 0.417314 1.5618e-10 -1.08496e-11 -1.45841e-10 2.90554 0.965183 0.102902 1.56186e-10 -1.08493e-11 -1.45842e-10 10.2786 0.731801 0.0259123 1.56178e-10 -1.08467e-11 -1.45842e-10 2.22167 -0.733487 -0.20892 5.69871e-15 2.47104e-14 -1.94203e-15 -22.342 11.2699 1.00535 3.99035 -1.76975 -6.27878 -0.0182247 -3.00494 0.420243 -1.31041e-10 -2.82423e-14 1.76586e-10 -2.27557e-10 -1.26333e-12 3.04588e-10 -1.31047e-10 -2.66464e-14 1.76593e-10 -7.73091 5.47488 -0.417314 -1.31041e-10 -2.82949e-14 1.76586e-10 -2.90554 0.965183 -0.102902 -1.31054e-10 -2.78214e-14 1.7659e-10 -10.2786 0.731801 -0.0259123 -1.31042e-10 -2.88269e-14 1.76583e-10 -2.22167 -0.733487 0.20892 -2.03217e-16 0.0 -3.88251e-19 0.449043 -5.55653 -2.05026 0.00965927 7.373 0.0801106 -0.537368 -3.24946 -0.57971 2.03217e-16 0.0 3.88251e-19 -0.561007 -6.59078 0.810746 -0.00253774 8.08704 -0.0804561 0.49393 -2.27916 0.196935
52.6735 83.5322 -175.583 -0.3117 -0.507 1.5974 -0.155253 -0.580437 -2.78424 0.485488 -0.548476 -0.796327 6.93358 7.51261 0.63478 -13.9584 -10.9935 -1.472 -0.0 0.0 0.0 -0.0 0.0 0.0 1.15166e-14 5.26208e-14 -3.50979e-15 45.6735 19.8992 1.058 -5.96288 -2.41781 10.0199 -0.0210783 8.76123 1.23025 3.29093e-10 -2.40706e-11 -3.10258e-10 5.64539e-10 -3.64517e-11 -5.40626e-10 3.29097e-10 -2.40693e-11 -3.10264e-10 7.73091 5.47488 0.417314 3.29092e-10 -2.40671e-11 -3.10265e-10 2.90554 0.965183 0.102902 3.29099e-10 -2.40663e-11 -3.10264e-10 10.2786 0.731801 0.0259123 3.29094e-10 -2.40641e-11 -3.10263e-10 2.22167 -0.733487 -0.20892 1.15183e-14 5.26208e-14 -3.74585e-15 -46.4288 23.1884 2.2074 7.79005 -3.57001 -12.936 0.010868 -6.2089 0.872283 -2.82284e-10 1.43598e-12 3.79461e-10 -4.90193e-10 -1.17283e-13 6.54547e-10 -2.8229e-10 1.43798e-12 3.79473e-10 -7.73091 5.47488 -0.417314 -2.82284e-10 1.43544e-12 3.79462e-10 -2.90554 0.965183 -0.102902 -2.82296e-10 1.43623e-12 3.79465e-10 -10.2786 0.731801 -0.0259123 -2.82284e-10 1.43595e-12 3.79459e-10 -2.22167 -0.733487 0.20892 -2.03217e-16 0.0 -3.88251e-19 0.281275 -8.27577 -4.20413 -0.0131278 15.3533 0.228018 -0.76747 -10.0069 -1.33411 2.03217e-16 0.0 3.88251e-19 -0.480419 -10.069 1.63225 0.0271768 16.1948 -0.219941 0.567721 -7.72902 0.533268
52.6469 83.5256 -175.601 -0.3999 -0.5921 1.6772 -0.207443 -0.845696 -4.06077 0.71118 -0.79665 -1.15998 10.0572 10.9493 0.94075 -20.5553 -16.0204 -2.18131 -0.0 0.0 0.0 -0.0 0.0 0.0 1.63004e-14 7.41359e-14 -5.31827e-15 66.3261 29.0085 1.66631 -8.40995 -3.46174 14.6175 -0.15974 12.7811 1.81931 4.60382e-10 -3.25694e-11 -4.37313e-10 7.89723e-10 -4.90463e-11 -7.61985e-10 4.60386e-10 -3.25685e-11 -4.37316e-10 7.73091 5.47488 0.417314 4.60381e-10 -3.25646e-11 -4.3732e-10 2.90554 0.965183 0.102902 4.60388e-10 -3.25635e-11 -4.37317e-10 10.2786 0.731801 0.0259123 4.60385e-10 -3.25616e-11 -4.37315e-10 2.22167 -0.733487 -0.20892 1.62983e-14 7.41358e-14 -5.52792e-15 -68.4162 33.7636 3.55868 10.8269 -5.05473 -18.9036 0.0789625 -9.01288 1.27474 -4.01279e-10 -8.54297e-14 5.29979e-10 -6.96767e-10 -3.78362e-12 9.14128e-10 -4.01284e-10 -8.31197e-14 5.29995e-10 -7.73091 5.47488 -0.417314 -4.01278e-10 -8.62761e-14 5.2998e-10 -2.90554 0.965183 -0.102902 -4.01289e-10 -8.52532e-14 5.29983e-10 -10.2786 0.731801 -0.0259123 -4.01277e-10 -8.48911e-14 5.29977e-10 -2.22167 -0.733487 0.20892 -2.03217e-16 0.0 -3.88251e-19 -0.0451975 -10.6845 -6.15419 -0.0711728 22.4733 0.373552 -1.13062 -16.0277 -2.05282 2.03217e-16 0.0 3.88251e-19 -0.322866 -13.1708 2.38872 0.0898479 23.4248 -0.357884 0.686637 -12.5915 0.836738
52.6571 83.5213 -175.613 -0.329 -0.7524 1.7289 -0.25038 -1.03212 -4.95525 0.85883 -0.959799 -1.41496 12.2197 13.3227 1.18181 -25.2403 -19.4989 -2.66466 -0.0 0.0 0.0 -0.0 0.0 0.0 1.84959e-14 7.96626e-14 -7.05686e-15 80.5692 35.3324 2.21017 -9.99769 -4.14002 17.7972 -0.308441 15.6085 2.25014 4.87609e-10 -2.92675e-11 -4.70945e-10 8.36353e-10 -4.28484e-11 -8.20468e-10 4.87612e-10 -2.92659e-11 -4.70948e-10 7.73091 5.47488 0.417314 4.87607e-10 -2.92622e-11 -4.70951e-10 2.90554 0.965183 0.102902 4.87616e-10 -2.92609e-11 -4.70948e-10 10.2786 0.731801 0.0259123 4.87614e-10 -2.92595e-11 -4.70945e-10 2.22167 -0.733487 -0.20892 1.84793e-14 7.96626e-14 -7.25564e-15 -84.1124 41.0238 4.7759 12.756 -5.99315 -23.083 0.145744 -10.8189 1.53901 -4.39653e-10 -9.07093e-12 5.49603e-10 -7.63184e-10 -1.94809e-11 9.47766e-10 -4.39657e-10 -9.06856e-12 5.49619e-10 -7.73091 5.47488 -0.417314 -4.39651e-10 -9.07164e-12 5.49603e-10 -2.90554 0.965183 -0.102902 -4.39662e-10 -9.07054e-12 5.49605e-10 -10.2786 0.731801 -0.0259123 -4.3965e-10 -9.06975e-12 5.496e-10 -2.22167 -0.733487 0.20892 -2.03217e-16 0.0 -3.88251e-19 -0.375882 -12.362 -7.52729 -0.136018 27.4431 0.487528 -1.48391 -20.216 -2.60298 2.03217e-16 0.0 3.88251e-19 -0.164544 -15.3395 2.94209 0.156466 28.4608 -0.465918 0.793648 -15.9869 1.03625
